
<svg width="35px" height="35px" viewBox="0 0 35 35" version="1.1" xmlns="http://www.w3.org/2000/svg" xmlns:xlink="http://www.w3.org/1999/xlink">
    <!-- Generator: Sketch 50.2 (55047) - http://www.bohemiancoding.com/sketch -->
    <desc>Created with Sketch.</desc>
    <defs></defs>
    <g id="Symbols" stroke="none" stroke-width="1" fill="none" fill-rule="evenodd">
        <g id="pakage-logo-small" transform="translate(-2.000000, -3.000000)">
            <g id="pakage-logo">
                <rect id="Rectangle-9" x="0" y="0" width="40" height="40"></rect>
                <g id="Group-2" transform="translate(4.000000, 0.000000)" stroke="#288BAA" stroke-linejoin="round" stroke-width="2">
                    <path d="M17.3963217,4.03769662 L31.3786513,12.1253403 L31.3786513,28.2974225 L17.3963217,36.3850661 L3.41399207,28.2974225 L3.41399207,12.1253403 L17.3963217,4.03769662 Z" id="Polygon-2" stroke-linecap="round"></path>
                    <path d="M3.41399207,12.0250984 L17.7101835,20.5582302 L17.7101835,36.6207558 L3.41399207,28.4462311 L3.41399207,12.0250984 Z" id="Rectangle-8"></path>
                    <path d="M4.02101749,11.3613638 L17.486247,20.3251986 L12.1854766,27.2607037 L-1.23745195,18.8684065 L4.02101749,11.3613638 Z" id="Rectangle-8-Copy-4" fill="#FFFFFF"></path>
                    <path d="M16.5164114,20.5762327 L31.4713206,12.1806322 L31.124413,28.3718858 L16.5164114,37.0049086 L16.5164114,20.5762327 Z" id="Rectangle-8-Copy"></path>
                    <path d="M10.9597233,6.73060028 L28.1354109,2.62926492 L23.5670865,19.3803843 L6.66503626,23.3858492 L10.9597233,6.73060028 Z" id="Rectangle-8-Copy-2" fill="#288BAA" transform="translate(17.386990, 13.012174) rotate(45.000000) translate(-17.386990, -13.012174) "></path>
                    <path d="M22.993092,4.16595955 L33.6444373,5.24069552 L17.5007577,14.00731 L5.68534326,14.00731 L22.993092,4.16595955 Z" id="Rectangle-8-Copy-5" fill="#FFFFFF" transform="translate(19.891793, 9.100121) scale(1, -1) translate(-19.891793, -9.100121) "></path>
                </g>
            </g>
        </g>
    </g>
</svg>